<svg xmlns="http://www.w3.org/2000/svg" viewBox="0 0 900 1100" role="img" aria-labelledby="title desc">
  <title id="title">优雅女性肖像插画</title>
  <desc id="desc">一幅穿着礼服、带有花饰与柔和光影的女性半身肖像插画。</desc>
  <defs>
    <radialGradient id="sunsetGlow" cx="50%" cy="28%" r="74%">
      <stop offset="0%" stop-color="#ffe8d2" />
      <stop offset="48%" stop-color="#f4b8a8" />
      <stop offset="100%" stop-color="#405f79" />
    </radialGradient>
    <linearGradient id="dressGradient" x1="15%" y1="10%" x2="85%" y2="100%">
      <stop offset="0%" stop-color="#245c6f" />
      <stop offset="52%" stop-color="#102f48" />
      <stop offset="100%" stop-color="#071827" />
    </linearGradient>
    <linearGradient id="hairGradient" x1="20%" y1="6%" x2="80%" y2="100%">
      <stop offset="0%" stop-color="#6c3e2e" />
      <stop offset="50%" stop-color="#2f211f" />
      <stop offset="100%" stop-color="#171316" />
    </linearGradient>
    <linearGradient id="skinGradient" x1="32%" y1="8%" x2="72%" y2="100%">
      <stop offset="0%" stop-color="#ffe0cf" />
      <stop offset="55%" stop-color="#efb99e" />
      <stop offset="100%" stop-color="#d58d7d" />
    </linearGradient>
    <filter id="softShadow" x="-20%" y="-20%" width="140%" height="150%">
      <feDropShadow dx="0" dy="28" stdDeviation="28" flood-color="#152a35" flood-opacity="0.28" />
    </filter>
  </defs>

  <rect width="900" height="1100" fill="url(#sunsetGlow)" />
  <path d="M0 812c135-95 266-125 394-88 160 45 310 13 506-103v479H0z" fill="#f6efe5" opacity="0.34" />
  <circle cx="170" cy="206" r="94" fill="#fff7e8" opacity="0.36" />
  <circle cx="748" cy="170" r="126" fill="#9ac6d1" opacity="0.22" />
  <path d="M112 760c85-80 174-108 268-84 77 20 128 6 187-40 72-57 146-74 221-53 39 11 76 31 112 60v457H112z" fill="#233c51" opacity="0.18" />

  <g filter="url(#softShadow)">
    <path d="M214 632c30-165 117-249 262-249 143 0 231 84 263 249l58 308H156z" fill="url(#dressGradient)" />
    <path d="M298 682c31-76 87-116 178-116 90 0 148 40 181 116l26 124H272z" fill="#f8f4ec" opacity="0.13" />

    <path d="M360 539c24 46 61 70 112 70 52 0 91-24 116-70v-92H360z" fill="#eeb69f" />
    <path d="M348 533c26 78 67 117 124 117 59 0 101-39 128-117l54 36c-31 104-92 159-182 164-88-5-147-60-177-164z" fill="#f6efe5" />
    <path d="M388 554c24 32 52 48 84 48 34 0 63-16 88-48l28 28c-28 47-67 71-116 71-48 0-87-24-115-71z" fill="#d9a76f" opacity="0.42" />

    <path d="M251 343c-4-146 78-254 224-265 138 12 217 116 220 265 2 103-38 182-105 242-39 35-77 52-116 52-40 0-80-18-120-55-65-61-101-139-103-239z" fill="url(#hairGradient)" />
    <path d="M299 335c0-110 70-189 174-189 103 0 177 79 177 189 0 91-31 164-88 218-30 28-60 42-89 42-31 0-62-14-92-43-54-53-82-125-82-217z" fill="url(#skinGradient)" />

    <path d="M260 404c-2-49 4-94 19-135 43-84 107-126 193-126 87 0 153 42 196 126 14 39 21 82 21 128-46-43-74-92-84-147-46 41-104 61-174 61-53 0-110-11-171-34 1 43 1 85 0 127z" fill="url(#hairGradient)" />
    <path d="M235 383c28 8 46 33 43 72-2 35-19 55-48 61-25-43-23-88 5-133z" fill="#eeb69f" />
    <path d="M713 383c-28 8-46 33-43 72 2 35 19 55 48 61 25-43 23-88-5-133z" fill="#eeb69f" />

    <path d="M386 377c24-18 56-20 84-6" fill="none" stroke="#4f2f28" stroke-width="12" stroke-linecap="round" />
    <path d="M521 371c28-14 60-12 84 6" fill="none" stroke="#4f2f28" stroke-width="12" stroke-linecap="round" />
    <ellipse cx="425" cy="421" rx="17" ry="22" fill="#39251f" />
    <ellipse cx="557" cy="421" rx="17" ry="22" fill="#39251f" />
    <circle cx="419" cy="413" r="5" fill="#fff8ef" />
    <circle cx="551" cy="413" r="5" fill="#fff8ef" />
    <path d="M478 438c-10 34-9 63 4 87" fill="none" stroke="#c77f75" stroke-width="9" stroke-linecap="round" />
    <path d="M420 526c36 31 78 32 121 1" fill="none" stroke="#b95763" stroke-width="12" stroke-linecap="round" />
    <path d="M419 333c-29 10-58 10-89 0" fill="none" stroke="#2e211f" stroke-width="14" stroke-linecap="round" opacity="0.54" />
    <path d="M522 333c31 10 62 10 93 0" fill="none" stroke="#2e211f" stroke-width="14" stroke-linecap="round" opacity="0.54" />
  </g>

  <g opacity="0.95">
    <path d="M253 239c-14-47 5-91 51-115 18 46 1 87-51 115z" fill="#f2d36f" />
    <path d="M304 124c52 8 82 41 83 96-51-3-79-35-83-96z" fill="#6ba983" />
    <path d="M235 263c45-37 93-50 146-38-37 50-86 63-146 38z" fill="#e98b83" />
    <circle cx="317" cy="222" r="18" fill="#fff4dd" />
    <path d="M309 219c-38 14-74 10-107-11" fill="none" stroke="#47644f" stroke-width="7" stroke-linecap="round" />
  </g>

  <g fill="#fff7ea" opacity="0.72">
    <circle cx="118" cy="461" r="5" />
    <circle cx="789" cy="421" r="4" />
    <circle cx="744" cy="718" r="6" />
    <circle cx="179" cy="802" r="4" />
    <circle cx="643" cy="254" r="5" />
  </g>
</svg>
